G04 #@! TF.GenerationSoftware,KiCad,Pcbnew,(5.1.10)-1*
G04 #@! TF.CreationDate,2021-12-06T16:20:35+09:00*
G04 #@! TF.ProjectId,20keypad,32306b65-7970-4616-942e-6b696361645f,rev?*
G04 #@! TF.SameCoordinates,Original*
G04 #@! TF.FileFunction,Soldermask,Top*
G04 #@! TF.FilePolarity,Negative*
%FSLAX46Y46*%
G04 Gerber Fmt 4.6, Leading zero omitted, Abs format (unit mm)*
G04 Created by KiCad (PCBNEW (5.1.10)-1) date 2021-12-06 16:20:35*
%MOMM*%
%LPD*%
G01*
G04 APERTURE LIST*
%ADD10C,1.800000*%
%ADD11R,1.800000X1.800000*%
%ADD12O,1.400000X1.400000*%
%ADD13C,1.400000*%
%ADD14C,1.700000*%
%ADD15C,4.000000*%
%ADD16C,2.200000*%
%ADD17O,2.800000X2.800000*%
%ADD18R,2.800000X2.800000*%
%ADD19C,1.600000*%
%ADD20R,1.600000X1.600000*%
%ADD21R,0.600000X1.450000*%
%ADD22R,0.300000X1.450000*%
%ADD23O,1.000000X2.100000*%
%ADD24C,0.650000*%
%ADD25O,1.000000X1.600000*%
%ADD26C,1.500000*%
%ADD27R,0.550000X1.600000*%
%ADD28R,1.600000X0.550000*%
%ADD29O,1.700000X1.700000*%
%ADD30R,1.700000X1.700000*%
G04 APERTURE END LIST*
D10*
X76200000Y-35560000D03*
D11*
X78740000Y-35560000D03*
D10*
X76200000Y-40640000D03*
D11*
X78740000Y-40640000D03*
D10*
X76200000Y-45720000D03*
D11*
X78740000Y-45720000D03*
D12*
X71120000Y-40640000D03*
D13*
X73660000Y-40640000D03*
D12*
X71120000Y-43180000D03*
D13*
X73660000Y-43180000D03*
D12*
X71120000Y-45720000D03*
D13*
X73660000Y-45720000D03*
D14*
X40005000Y-136525000D03*
X29845000Y-136525000D03*
D15*
X34925000Y-136525000D03*
D16*
X31115000Y-133985000D03*
X37465000Y-131445000D03*
D14*
X59055000Y-136525000D03*
X48895000Y-136525000D03*
D15*
X53975000Y-136525000D03*
D16*
X50165000Y-133985000D03*
X56515000Y-131445000D03*
D14*
X78105000Y-136525000D03*
X67945000Y-136525000D03*
D15*
X73025000Y-136525000D03*
D16*
X69215000Y-133985000D03*
X75565000Y-131445000D03*
D14*
X97155000Y-136525000D03*
X86995000Y-136525000D03*
D15*
X92075000Y-136525000D03*
D16*
X88265000Y-133985000D03*
X94615000Y-131445000D03*
D14*
X40005000Y-117475000D03*
X29845000Y-117475000D03*
D15*
X34925000Y-117475000D03*
D16*
X31115000Y-114935000D03*
X37465000Y-112395000D03*
D14*
X59055000Y-117475000D03*
X48895000Y-117475000D03*
D15*
X53975000Y-117475000D03*
D16*
X50165000Y-114935000D03*
X56515000Y-112395000D03*
D14*
X78105000Y-117475000D03*
X67945000Y-117475000D03*
D15*
X73025000Y-117475000D03*
D16*
X69215000Y-114935000D03*
X75565000Y-112395000D03*
D14*
X97155000Y-117475000D03*
X86995000Y-117475000D03*
D15*
X92075000Y-117475000D03*
D16*
X88265000Y-114935000D03*
X94615000Y-112395000D03*
D14*
X40005000Y-98425000D03*
X29845000Y-98425000D03*
D15*
X34925000Y-98425000D03*
D16*
X31115000Y-95885000D03*
X37465000Y-93345000D03*
D14*
X59055000Y-98425000D03*
X48895000Y-98425000D03*
D15*
X53975000Y-98425000D03*
D16*
X50165000Y-95885000D03*
X56515000Y-93345000D03*
D14*
X78105000Y-98425000D03*
X67945000Y-98425000D03*
D15*
X73025000Y-98425000D03*
D16*
X69215000Y-95885000D03*
X75565000Y-93345000D03*
D14*
X97155000Y-98425000D03*
X86995000Y-98425000D03*
D15*
X92075000Y-98425000D03*
D16*
X88265000Y-95885000D03*
X94615000Y-93345000D03*
D14*
X40005000Y-79375000D03*
X29845000Y-79375000D03*
D15*
X34925000Y-79375000D03*
D16*
X31115000Y-76835000D03*
X37465000Y-74295000D03*
D14*
X59055000Y-79375000D03*
X48895000Y-79375000D03*
D15*
X53975000Y-79375000D03*
D16*
X50165000Y-76835000D03*
X56515000Y-74295000D03*
D14*
X78105000Y-79375000D03*
X67945000Y-79375000D03*
D15*
X73025000Y-79375000D03*
D16*
X69215000Y-76835000D03*
X75565000Y-74295000D03*
D14*
X97155000Y-79375000D03*
X86995000Y-79375000D03*
D15*
X92075000Y-79375000D03*
D16*
X88265000Y-76835000D03*
X94615000Y-74295000D03*
D14*
X40005000Y-60325000D03*
X29845000Y-60325000D03*
D15*
X34925000Y-60325000D03*
D16*
X31115000Y-57785000D03*
X37465000Y-55245000D03*
D14*
X59055000Y-60325000D03*
X48895000Y-60325000D03*
D15*
X53975000Y-60325000D03*
D16*
X50165000Y-57785000D03*
X56515000Y-55245000D03*
D14*
X78105000Y-60325000D03*
X67945000Y-60325000D03*
D15*
X73025000Y-60325000D03*
D16*
X69215000Y-57785000D03*
X75565000Y-55245000D03*
D14*
X97155000Y-60325000D03*
X86995000Y-60325000D03*
D15*
X92075000Y-60325000D03*
D16*
X88265000Y-57785000D03*
X94615000Y-55245000D03*
D17*
X40005000Y-127000000D03*
D18*
X29845000Y-127000000D03*
D17*
X59055000Y-127000000D03*
D18*
X48895000Y-127000000D03*
D17*
X78105000Y-127000000D03*
D18*
X67945000Y-127000000D03*
D17*
X97155000Y-127000000D03*
D18*
X86995000Y-127000000D03*
D17*
X40005000Y-107950000D03*
D18*
X29845000Y-107950000D03*
D17*
X59055000Y-107950000D03*
D18*
X48895000Y-107950000D03*
D17*
X78740000Y-107950000D03*
D18*
X68580000Y-107950000D03*
D17*
X97155000Y-107950000D03*
D18*
X86995000Y-107950000D03*
D17*
X40005000Y-88900000D03*
D18*
X29845000Y-88900000D03*
D17*
X59055000Y-88900000D03*
D18*
X48895000Y-88900000D03*
D17*
X78105000Y-88900000D03*
D18*
X67945000Y-88900000D03*
D17*
X97155000Y-88900000D03*
D18*
X86995000Y-88900000D03*
D17*
X40005000Y-69850000D03*
D18*
X29845000Y-69850000D03*
D17*
X59055000Y-69850000D03*
D18*
X48895000Y-69850000D03*
D17*
X78105000Y-69850000D03*
D18*
X67945000Y-69850000D03*
D17*
X97155000Y-69850000D03*
D18*
X86995000Y-69850000D03*
D17*
X40005000Y-50800000D03*
D18*
X29845000Y-50800000D03*
D17*
X59055000Y-50800000D03*
D18*
X48895000Y-50800000D03*
D17*
X78105000Y-50800000D03*
D18*
X67945000Y-50800000D03*
D17*
X97155000Y-50800000D03*
D18*
X86995000Y-50800000D03*
D19*
X44450000Y-42585000D03*
X44450000Y-45085000D03*
X40005000Y-42585000D03*
D20*
X40005000Y-45085000D03*
D21*
X27865000Y-40875000D03*
X28665000Y-40875000D03*
X33565000Y-40875000D03*
X34365000Y-40875000D03*
X34365000Y-40875000D03*
X33565000Y-40875000D03*
X28665000Y-40875000D03*
X27865000Y-40875000D03*
D22*
X32865000Y-40875000D03*
X32365000Y-40875000D03*
X31865000Y-40875000D03*
X30865000Y-40875000D03*
X30365000Y-40875000D03*
X29865000Y-40875000D03*
X29365000Y-40875000D03*
X31365000Y-40875000D03*
D23*
X26795000Y-39960000D03*
X35435000Y-39960000D03*
D24*
X34005000Y-39430000D03*
D25*
X35435000Y-35780000D03*
D24*
X28225000Y-39430000D03*
D25*
X26795000Y-35780000D03*
D26*
X54410000Y-44450000D03*
X49530000Y-44450000D03*
D27*
X60700000Y-37660000D03*
X61500000Y-37660000D03*
X62300000Y-37660000D03*
X63100000Y-37660000D03*
X63900000Y-37660000D03*
X64700000Y-37660000D03*
X65500000Y-37660000D03*
X66300000Y-37660000D03*
D28*
X67750000Y-39110000D03*
X67750000Y-39910000D03*
X67750000Y-40710000D03*
X67750000Y-41510000D03*
X67750000Y-42310000D03*
X67750000Y-43110000D03*
X67750000Y-43910000D03*
X67750000Y-44710000D03*
D27*
X66300000Y-46160000D03*
X65500000Y-46160000D03*
X64700000Y-46160000D03*
X63900000Y-46160000D03*
X63100000Y-46160000D03*
X62300000Y-46160000D03*
X61500000Y-46160000D03*
X60700000Y-46160000D03*
D28*
X59250000Y-44710000D03*
X59250000Y-43910000D03*
X59250000Y-43110000D03*
X59250000Y-42310000D03*
X59250000Y-41510000D03*
X59250000Y-40710000D03*
X59250000Y-39910000D03*
X59250000Y-39110000D03*
D12*
X71120000Y-38100000D03*
D13*
X73660000Y-38100000D03*
D12*
X29845000Y-46355000D03*
D13*
X29845000Y-43815000D03*
D12*
X32385000Y-46355000D03*
D13*
X32385000Y-43815000D03*
D12*
X34925000Y-46355000D03*
D13*
X34925000Y-43815000D03*
D12*
X27305000Y-46355000D03*
D13*
X27305000Y-43815000D03*
D29*
X38735000Y-38100000D03*
X38735000Y-35560000D03*
X41275000Y-38100000D03*
X41275000Y-35560000D03*
X43815000Y-38100000D03*
D30*
X43815000Y-35560000D03*
D19*
X49530000Y-39330000D03*
X49530000Y-36830000D03*
X53975000Y-39370000D03*
X56475000Y-39370000D03*
X53975000Y-36830000D03*
X56475000Y-36830000D03*
M02*
