M48
; DRILL file {KiCad (5.1.10)-1} date 12/06/21 16:21:30
; FORMAT={-:-/ absolute / metric / decimal}
; #@! TF.CreationDate,2021-12-06T16:21:30+09:00
; #@! TF.GenerationSoftware,Kicad,Pcbnew,(5.1.10)-1
FMAT,2
METRIC
T1C0.400
T2C0.600
T3C0.700
T4C0.800
T5C0.900
T6C1.000
T7C1.400
T8C1.500
T9C0.650
T10C1.700
T11C4.000
%
G90
G05
T1
X52.169Y-40.42
X52.871Y-45.554
X61.458Y-41.61
X61.563Y-39.083
X61.595Y-36.195
X62.23Y-52.705
X62.885Y-40.62
X63.5Y-36.195
X63.5Y-44.45
X63.68Y-90.625
X64.437Y-40.364
X64.95Y-109.675
X65.548Y-44.075
X65.768Y-41.378
X66.166Y-42.379
X67.31Y-35.56
T3
X27.305Y-43.815
X27.305Y-46.355
X29.845Y-43.815
X29.845Y-46.355
X32.385Y-43.815
X32.385Y-46.355
X34.925Y-43.815
X34.925Y-46.355
X71.12Y-38.1
X71.12Y-40.64
X71.12Y-43.18
X71.12Y-45.72
X73.66Y-38.1
X73.66Y-40.64
X73.66Y-43.18
X73.66Y-45.72
T4
X40.005Y-42.585
X40.005Y-45.085
X44.45Y-42.585
X44.45Y-45.085
X49.53Y-36.83
X49.53Y-39.33
X49.53Y-44.45
X53.975Y-36.83
X53.975Y-39.37
X54.41Y-44.45
X56.475Y-36.83
X56.475Y-39.37
T5
X76.2Y-35.56
X76.2Y-40.64
X76.2Y-45.72
X78.74Y-35.56
X78.74Y-40.64
X78.74Y-45.72
T6
X38.735Y-35.56
X38.735Y-38.1
X41.275Y-35.56
X41.275Y-38.1
X43.815Y-35.56
X43.815Y-38.1
T7
X29.845Y-50.8
X29.845Y-69.85
X29.845Y-88.9
X29.845Y-107.95
X29.845Y-127.0
X40.005Y-50.8
X40.005Y-69.85
X40.005Y-88.9
X40.005Y-107.95
X40.005Y-127.0
X48.895Y-50.8
X48.895Y-69.85
X48.895Y-88.9
X48.895Y-107.95
X48.895Y-127.0
X59.055Y-50.8
X59.055Y-69.85
X59.055Y-88.9
X59.055Y-107.95
X59.055Y-127.0
X67.945Y-50.8
X67.945Y-69.85
X67.945Y-88.9
X67.945Y-127.0
X68.58Y-107.95
X78.105Y-50.8
X78.105Y-69.85
X78.105Y-88.9
X78.105Y-127.0
X78.74Y-107.95
X86.995Y-50.8
X86.995Y-69.85
X86.995Y-88.9
X86.995Y-107.95
X86.995Y-127.0
X97.155Y-50.8
X97.155Y-69.85
X97.155Y-88.9
X97.155Y-107.95
X97.155Y-127.0
T8
X31.115Y-57.785
X31.115Y-76.835
X31.115Y-95.885
X31.115Y-114.935
X31.115Y-133.985
X37.465Y-55.245
X37.465Y-74.295
X37.465Y-93.345
X37.465Y-112.395
X37.465Y-131.445
X50.165Y-57.785
X50.165Y-76.835
X50.165Y-95.885
X50.165Y-114.935
X50.165Y-133.985
X56.515Y-55.245
X56.515Y-74.295
X56.515Y-93.345
X56.515Y-112.395
X56.515Y-131.445
X69.215Y-57.785
X69.215Y-76.835
X69.215Y-95.885
X69.215Y-114.935
X69.215Y-133.985
X75.565Y-55.245
X75.565Y-74.295
X75.565Y-93.345
X75.565Y-112.395
X75.565Y-131.445
X88.265Y-57.785
X88.265Y-76.835
X88.265Y-95.885
X88.265Y-114.935
X88.265Y-133.985
X94.615Y-55.245
X94.615Y-74.295
X94.615Y-93.345
X94.615Y-112.395
X94.615Y-131.445
T9
X28.225Y-39.43
X34.005Y-39.43
T10
X29.845Y-60.325
X29.845Y-79.375
X29.845Y-98.425
X29.845Y-117.475
X29.845Y-136.525
X40.005Y-60.325
X40.005Y-79.375
X40.005Y-98.425
X40.005Y-117.475
X40.005Y-136.525
X48.895Y-60.325
X48.895Y-79.375
X48.895Y-98.425
X48.895Y-117.475
X48.895Y-136.525
X59.055Y-60.325
X59.055Y-79.375
X59.055Y-98.425
X59.055Y-117.475
X59.055Y-136.525
X67.945Y-60.325
X67.945Y-79.375
X67.945Y-98.425
X67.945Y-117.475
X67.945Y-136.525
X78.105Y-60.325
X78.105Y-79.375
X78.105Y-98.425
X78.105Y-117.475
X78.105Y-136.525
X86.995Y-60.325
X86.995Y-79.375
X86.995Y-98.425
X86.995Y-117.475
X86.995Y-136.525
X97.155Y-60.325
X97.155Y-79.375
X97.155Y-98.425
X97.155Y-117.475
X97.155Y-136.525
T11
X34.925Y-60.325
X34.925Y-79.375
X34.925Y-98.425
X34.925Y-117.475
X34.925Y-136.525
X53.975Y-60.325
X53.975Y-79.375
X53.975Y-98.425
X53.975Y-117.475
X53.975Y-136.525
X73.025Y-60.325
X73.025Y-79.375
X73.025Y-98.425
X73.025Y-117.475
X73.025Y-136.525
X92.075Y-60.325
X92.075Y-79.375
X92.075Y-98.425
X92.075Y-117.475
X92.075Y-136.525
T2
G00X26.795Y-36.08
M15
G01X26.795Y-35.48
M16
G05
G00X26.795Y-40.51
M15
G01X26.795Y-39.41
M16
G05
G00X35.435Y-36.08
M15
G01X35.435Y-35.48
M16
G05
G00X35.435Y-40.51
M15
G01X35.435Y-39.41
M16
G05
T0
M30
