G04 #@! TF.GenerationSoftware,KiCad,Pcbnew,(5.1.10)-1*
G04 #@! TF.CreationDate,2021-12-06T16:20:35+09:00*
G04 #@! TF.ProjectId,20keypad,32306b65-7970-4616-942e-6b696361645f,rev?*
G04 #@! TF.SameCoordinates,Original*
G04 #@! TF.FileFunction,Paste,Top*
G04 #@! TF.FilePolarity,Positive*
%FSLAX46Y46*%
G04 Gerber Fmt 4.6, Leading zero omitted, Abs format (unit mm)*
G04 Created by KiCad (PCBNEW (5.1.10)-1) date 2021-12-06 16:20:35*
%MOMM*%
%LPD*%
G01*
G04 APERTURE LIST*
%ADD10R,0.600000X1.450000*%
%ADD11R,0.300000X1.450000*%
%ADD12R,0.550000X1.600000*%
%ADD13R,1.600000X0.550000*%
G04 APERTURE END LIST*
D10*
X27865000Y-40875000D03*
X28665000Y-40875000D03*
X33565000Y-40875000D03*
X34365000Y-40875000D03*
X34365000Y-40875000D03*
X33565000Y-40875000D03*
X28665000Y-40875000D03*
X27865000Y-40875000D03*
D11*
X32865000Y-40875000D03*
X32365000Y-40875000D03*
X31865000Y-40875000D03*
X30865000Y-40875000D03*
X30365000Y-40875000D03*
X29865000Y-40875000D03*
X29365000Y-40875000D03*
X31365000Y-40875000D03*
D12*
X60700000Y-37660000D03*
X61500000Y-37660000D03*
X62300000Y-37660000D03*
X63100000Y-37660000D03*
X63900000Y-37660000D03*
X64700000Y-37660000D03*
X65500000Y-37660000D03*
X66300000Y-37660000D03*
D13*
X67750000Y-39110000D03*
X67750000Y-39910000D03*
X67750000Y-40710000D03*
X67750000Y-41510000D03*
X67750000Y-42310000D03*
X67750000Y-43110000D03*
X67750000Y-43910000D03*
X67750000Y-44710000D03*
D12*
X66300000Y-46160000D03*
X65500000Y-46160000D03*
X64700000Y-46160000D03*
X63900000Y-46160000D03*
X63100000Y-46160000D03*
X62300000Y-46160000D03*
X61500000Y-46160000D03*
X60700000Y-46160000D03*
D13*
X59250000Y-44710000D03*
X59250000Y-43910000D03*
X59250000Y-43110000D03*
X59250000Y-42310000D03*
X59250000Y-41510000D03*
X59250000Y-40710000D03*
X59250000Y-39910000D03*
X59250000Y-39110000D03*
M02*
