G04 #@! TF.GenerationSoftware,KiCad,Pcbnew,(5.1.10)-1*
G04 #@! TF.CreationDate,2021-12-06T16:20:35+09:00*
G04 #@! TF.ProjectId,20keypad,32306b65-7970-4616-942e-6b696361645f,rev?*
G04 #@! TF.SameCoordinates,Original*
G04 #@! TF.FileFunction,Copper,L2,Bot*
G04 #@! TF.FilePolarity,Positive*
%FSLAX46Y46*%
G04 Gerber Fmt 4.6, Leading zero omitted, Abs format (unit mm)*
G04 Created by KiCad (PCBNEW (5.1.10)-1) date 2021-12-06 16:20:35*
%MOMM*%
%LPD*%
G01*
G04 APERTURE LIST*
G04 #@! TA.AperFunction,ComponentPad*
%ADD10C,1.800000*%
G04 #@! TD*
G04 #@! TA.AperFunction,ComponentPad*
%ADD11R,1.800000X1.800000*%
G04 #@! TD*
G04 #@! TA.AperFunction,ComponentPad*
%ADD12O,1.400000X1.400000*%
G04 #@! TD*
G04 #@! TA.AperFunction,ComponentPad*
%ADD13C,1.400000*%
G04 #@! TD*
G04 #@! TA.AperFunction,ComponentPad*
%ADD14C,2.200000*%
G04 #@! TD*
G04 #@! TA.AperFunction,ComponentPad*
%ADD15O,2.800000X2.800000*%
G04 #@! TD*
G04 #@! TA.AperFunction,ComponentPad*
%ADD16R,2.800000X2.800000*%
G04 #@! TD*
G04 #@! TA.AperFunction,ComponentPad*
%ADD17C,1.600000*%
G04 #@! TD*
G04 #@! TA.AperFunction,ComponentPad*
%ADD18R,1.600000X1.600000*%
G04 #@! TD*
G04 #@! TA.AperFunction,ComponentPad*
%ADD19O,1.000000X2.100000*%
G04 #@! TD*
G04 #@! TA.AperFunction,ComponentPad*
%ADD20O,1.000000X1.600000*%
G04 #@! TD*
G04 #@! TA.AperFunction,ComponentPad*
%ADD21C,1.500000*%
G04 #@! TD*
G04 #@! TA.AperFunction,ComponentPad*
%ADD22O,1.700000X1.700000*%
G04 #@! TD*
G04 #@! TA.AperFunction,ComponentPad*
%ADD23R,1.700000X1.700000*%
G04 #@! TD*
G04 #@! TA.AperFunction,ViaPad*
%ADD24C,0.800000*%
G04 #@! TD*
G04 #@! TA.AperFunction,Conductor*
%ADD25C,0.500000*%
G04 #@! TD*
G04 #@! TA.AperFunction,Conductor*
%ADD26C,0.250000*%
G04 #@! TD*
G04 APERTURE END LIST*
D10*
X76200000Y-35560000D03*
D11*
X78740000Y-35560000D03*
D10*
X76200000Y-40640000D03*
D11*
X78740000Y-40640000D03*
D10*
X76200000Y-45720000D03*
D11*
X78740000Y-45720000D03*
D12*
X71120000Y-40640000D03*
D13*
X73660000Y-40640000D03*
D12*
X71120000Y-43180000D03*
D13*
X73660000Y-43180000D03*
D12*
X71120000Y-45720000D03*
D13*
X73660000Y-45720000D03*
D14*
X31115000Y-133985000D03*
X37465000Y-131445000D03*
X50165000Y-133985000D03*
X56515000Y-131445000D03*
X69215000Y-133985000D03*
X75565000Y-131445000D03*
X88265000Y-133985000D03*
X94615000Y-131445000D03*
X31115000Y-114935000D03*
X37465000Y-112395000D03*
X50165000Y-114935000D03*
X56515000Y-112395000D03*
X69215000Y-114935000D03*
X75565000Y-112395000D03*
X88265000Y-114935000D03*
X94615000Y-112395000D03*
X31115000Y-95885000D03*
X37465000Y-93345000D03*
X50165000Y-95885000D03*
X56515000Y-93345000D03*
X69215000Y-95885000D03*
X75565000Y-93345000D03*
X88265000Y-95885000D03*
X94615000Y-93345000D03*
X31115000Y-76835000D03*
X37465000Y-74295000D03*
X50165000Y-76835000D03*
X56515000Y-74295000D03*
X69215000Y-76835000D03*
X75565000Y-74295000D03*
X88265000Y-76835000D03*
X94615000Y-74295000D03*
X31115000Y-57785000D03*
X37465000Y-55245000D03*
X50165000Y-57785000D03*
X56515000Y-55245000D03*
X69215000Y-57785000D03*
X75565000Y-55245000D03*
X88265000Y-57785000D03*
X94615000Y-55245000D03*
D15*
X40005000Y-127000000D03*
D16*
X29845000Y-127000000D03*
D15*
X59055000Y-127000000D03*
D16*
X48895000Y-127000000D03*
D15*
X78105000Y-127000000D03*
D16*
X67945000Y-127000000D03*
D15*
X97155000Y-127000000D03*
D16*
X86995000Y-127000000D03*
D15*
X40005000Y-107950000D03*
D16*
X29845000Y-107950000D03*
D15*
X59055000Y-107950000D03*
D16*
X48895000Y-107950000D03*
D15*
X78740000Y-107950000D03*
D16*
X68580000Y-107950000D03*
D15*
X97155000Y-107950000D03*
D16*
X86995000Y-107950000D03*
D15*
X40005000Y-88900000D03*
D16*
X29845000Y-88900000D03*
D15*
X59055000Y-88900000D03*
D16*
X48895000Y-88900000D03*
D15*
X78105000Y-88900000D03*
D16*
X67945000Y-88900000D03*
D15*
X97155000Y-88900000D03*
D16*
X86995000Y-88900000D03*
D15*
X40005000Y-69850000D03*
D16*
X29845000Y-69850000D03*
D15*
X59055000Y-69850000D03*
D16*
X48895000Y-69850000D03*
D15*
X78105000Y-69850000D03*
D16*
X67945000Y-69850000D03*
D15*
X97155000Y-69850000D03*
D16*
X86995000Y-69850000D03*
D15*
X40005000Y-50800000D03*
D16*
X29845000Y-50800000D03*
D15*
X59055000Y-50800000D03*
D16*
X48895000Y-50800000D03*
D15*
X78105000Y-50800000D03*
D16*
X67945000Y-50800000D03*
D15*
X97155000Y-50800000D03*
D16*
X86995000Y-50800000D03*
D17*
X44450000Y-42585000D03*
X44450000Y-45085000D03*
X40005000Y-42585000D03*
D18*
X40005000Y-45085000D03*
D19*
X26795000Y-39960000D03*
X35435000Y-39960000D03*
D20*
X35435000Y-35780000D03*
X26795000Y-35780000D03*
D21*
X54410000Y-44450000D03*
X49530000Y-44450000D03*
D12*
X71120000Y-38100000D03*
D13*
X73660000Y-38100000D03*
D12*
X29845000Y-46355000D03*
D13*
X29845000Y-43815000D03*
D12*
X32385000Y-46355000D03*
D13*
X32385000Y-43815000D03*
D12*
X34925000Y-46355000D03*
D13*
X34925000Y-43815000D03*
D12*
X27305000Y-46355000D03*
D13*
X27305000Y-43815000D03*
D22*
X38735000Y-38100000D03*
X38735000Y-35560000D03*
X41275000Y-38100000D03*
X41275000Y-35560000D03*
X43815000Y-38100000D03*
D23*
X43815000Y-35560000D03*
D17*
X49530000Y-39330000D03*
X49530000Y-36830000D03*
X53975000Y-39370000D03*
X56475000Y-39370000D03*
X53975000Y-36830000D03*
X56475000Y-36830000D03*
D24*
X62885000Y-40620000D03*
X63500000Y-36195000D03*
X52169200Y-40420000D03*
X61595000Y-36195000D03*
X67310000Y-35560000D03*
X52871400Y-45553600D03*
X63500000Y-44450000D03*
X61562800Y-39083200D03*
X61458300Y-41610300D03*
X64436800Y-40364300D03*
X65548400Y-44075500D03*
X65767600Y-41377900D03*
X66166000Y-42378700D03*
X64949999Y-109675001D03*
X63679700Y-90625300D03*
X62230000Y-52705000D03*
D25*
X44450000Y-42585000D02*
X46275000Y-42585000D01*
X46275000Y-42585000D02*
X49530000Y-39330000D01*
X49530000Y-39330000D02*
X53935000Y-39330000D01*
X53935000Y-39330000D02*
X53975000Y-39370000D01*
X53975000Y-39370000D02*
X53975000Y-36830000D01*
X53975000Y-39370000D02*
X55225000Y-40620000D01*
X55225000Y-40620000D02*
X62885000Y-40620000D01*
D26*
X40005000Y-42585000D02*
X36235000Y-46355000D01*
X36235000Y-46355000D02*
X34925000Y-46355000D01*
X77514999Y-34334999D02*
X78740000Y-35560000D01*
X75611999Y-34334999D02*
X77514999Y-34334999D01*
X78740000Y-35560000D02*
X78740000Y-40640000D01*
X78740000Y-40640000D02*
X78740000Y-45720000D01*
X73705999Y-36240999D02*
X75611999Y-34334999D01*
X73661997Y-36285001D02*
X73705999Y-36240999D01*
X63899999Y-36594999D02*
X63500000Y-36195000D01*
X73351999Y-36594999D02*
X63899999Y-36594999D01*
X73705999Y-36240999D02*
X73351999Y-36594999D01*
X52169200Y-40420000D02*
X52169200Y-41810800D01*
X52169200Y-41810800D02*
X49530000Y-44450000D01*
X54410000Y-44450000D02*
X60128000Y-44450000D01*
X60128000Y-44450000D02*
X63610000Y-40968000D01*
X63610000Y-40968000D02*
X63610000Y-40272000D01*
X63610000Y-40272000D02*
X63233000Y-39895000D01*
X63233000Y-39895000D02*
X57000000Y-39895000D01*
X57000000Y-39895000D02*
X56475000Y-39370000D01*
D25*
X44450000Y-45085000D02*
X43200000Y-43835000D01*
X43200000Y-43835000D02*
X43200000Y-38715000D01*
X43200000Y-38715000D02*
X43815000Y-38100000D01*
D26*
X62474999Y-37074999D02*
X61595000Y-36195000D01*
X72634999Y-37074999D02*
X62474999Y-37074999D01*
X73660000Y-38100000D02*
X72634999Y-37074999D01*
X66134999Y-34384999D02*
X67310000Y-35560000D01*
X39910001Y-34384999D02*
X66134999Y-34384999D01*
X38735000Y-35560000D02*
X39910001Y-34384999D01*
X62396400Y-45553600D02*
X63500000Y-44450000D01*
X52871400Y-45553600D02*
X62396400Y-45553600D01*
X32385000Y-46355000D02*
X33410000Y-45330000D01*
X33410000Y-45330000D02*
X34927000Y-45330000D01*
X34927000Y-45330000D02*
X40982000Y-39275000D01*
X40982000Y-39275000D02*
X41839000Y-39275000D01*
X41839000Y-39275000D02*
X42545000Y-38569000D01*
X42545000Y-38569000D02*
X42545000Y-37705200D01*
X42545000Y-37705200D02*
X43333000Y-36917200D01*
X43333000Y-36917200D02*
X47952200Y-36917200D01*
X47952200Y-36917200D02*
X48990000Y-37955000D01*
X48990000Y-37955000D02*
X50070000Y-37955000D01*
X50070000Y-37955000D02*
X52352400Y-35672600D01*
X52352400Y-35672600D02*
X58152200Y-35672600D01*
X58152200Y-35672600D02*
X61562800Y-39083200D01*
X29845000Y-46355000D02*
X30892400Y-47402400D01*
X30892400Y-47402400D02*
X49146400Y-47402400D01*
X49146400Y-47402400D02*
X54938500Y-41610300D01*
X54938500Y-41610300D02*
X61458300Y-41610300D01*
X66219999Y-49139999D02*
X66219999Y-52460001D01*
X66891001Y-48468997D02*
X66219999Y-49139999D01*
X66891001Y-41428299D02*
X66891001Y-48468997D01*
X71544998Y-57785000D02*
X88265000Y-57785000D01*
X65827002Y-40364300D02*
X66891001Y-41428299D01*
X66219999Y-52460001D02*
X71544998Y-57785000D01*
X64436800Y-40364300D02*
X65827002Y-40364300D01*
X65769989Y-44297089D02*
X65548400Y-44075500D01*
X65769989Y-54339989D02*
X65769989Y-44297089D01*
X69215000Y-57785000D02*
X65769989Y-54339989D01*
X64373389Y-42772111D02*
X65767600Y-41377900D01*
X64373389Y-51634613D02*
X64373389Y-42772111D01*
X58223002Y-57785000D02*
X64373389Y-51634613D01*
X50165000Y-57785000D02*
X58223002Y-57785000D01*
X41910000Y-57785000D02*
X39370000Y-57785000D01*
X46990000Y-62865000D02*
X41910000Y-57785000D01*
X58420000Y-62865000D02*
X46990000Y-62865000D01*
X64823399Y-56461601D02*
X58420000Y-62865000D01*
X64823399Y-43721301D02*
X64823399Y-56461601D01*
X39370000Y-57785000D02*
X31115000Y-57785000D01*
X66166000Y-42378700D02*
X64823399Y-43721301D01*
X47169999Y-128725001D02*
X48895000Y-127000000D01*
X31570001Y-128725001D02*
X47169999Y-128725001D01*
X29845000Y-127000000D02*
X31570001Y-128725001D01*
X66219999Y-128725001D02*
X67945000Y-127000000D01*
X50620001Y-128725001D02*
X66219999Y-128725001D01*
X48895000Y-127000000D02*
X50620001Y-128725001D01*
X85269999Y-128725001D02*
X86995000Y-127000000D01*
X69670001Y-128725001D02*
X85269999Y-128725001D01*
X67945000Y-127000000D02*
X69670001Y-128725001D01*
X47169999Y-109675001D02*
X48895000Y-107950000D01*
X31570001Y-109675001D02*
X47169999Y-109675001D01*
X29845000Y-107950000D02*
X31570001Y-109675001D01*
X66854999Y-109675001D02*
X68580000Y-107950000D01*
X50620001Y-109675001D02*
X64949999Y-109675001D01*
X48895000Y-107950000D02*
X50620001Y-109675001D01*
X70305001Y-109675001D02*
X85269999Y-109675001D01*
X85269999Y-109675001D02*
X86995000Y-107950000D01*
X68580000Y-107950000D02*
X70305001Y-109675001D01*
X64949999Y-109675001D02*
X66854999Y-109675001D01*
X47169700Y-90625300D02*
X48895000Y-88900000D01*
X31570300Y-90625300D02*
X47169700Y-90625300D01*
X29845000Y-88900000D02*
X31570300Y-90625300D01*
X66219700Y-90625300D02*
X67945000Y-88900000D01*
X50620300Y-90625300D02*
X63679700Y-90625300D01*
X48895000Y-88900000D02*
X50620300Y-90625300D01*
X85269700Y-90625300D02*
X86995000Y-88900000D01*
X69670300Y-90625300D02*
X85269700Y-90625300D01*
X67945000Y-88900000D02*
X69670300Y-90625300D01*
X63679700Y-90625300D02*
X66219700Y-90625300D01*
X31570001Y-71575001D02*
X47169999Y-71575001D01*
X47169999Y-71575001D02*
X48895000Y-69850000D01*
X29845000Y-69850000D02*
X31570001Y-71575001D01*
X66219999Y-71575001D02*
X67945000Y-69850000D01*
X50620001Y-71575001D02*
X66219999Y-71575001D01*
X48895000Y-69850000D02*
X50620001Y-71575001D01*
X85269999Y-71575001D02*
X86995000Y-69850000D01*
X69670001Y-71575001D02*
X85269999Y-71575001D01*
X67945000Y-69850000D02*
X69670001Y-71575001D01*
X48895000Y-50800000D02*
X47169700Y-52525300D01*
X31570001Y-52525001D02*
X29845000Y-50800000D01*
X39825001Y-52525001D02*
X31570001Y-52525001D01*
X39825300Y-52525300D02*
X39825001Y-52525001D01*
X40460300Y-52525300D02*
X39825300Y-52525300D01*
X47169700Y-52525300D02*
X46534700Y-52525300D01*
X40460300Y-52525300D02*
X40184700Y-52525300D01*
X46534700Y-52525300D02*
X40460300Y-52525300D01*
X31570300Y-52525300D02*
X29845000Y-50800000D01*
X46534700Y-52525300D02*
X31570300Y-52525300D01*
X85269999Y-52525001D02*
X86995000Y-50800000D01*
X69670001Y-52525001D02*
X85269999Y-52525001D01*
X67945000Y-50800000D02*
X69670001Y-52525001D01*
X50800000Y-52705000D02*
X48895000Y-50800000D01*
X50800000Y-52705000D02*
X62230000Y-52705000D01*
X73660000Y-45720000D02*
X76200000Y-45720000D01*
X73660000Y-43180000D02*
X76200000Y-40640000D01*
X76200000Y-38100000D02*
X76200000Y-35560000D01*
X73660000Y-40640000D02*
X76200000Y-38100000D01*
M02*
